<?xml version="1.0" encoding="UTF-8"?>
<svg version="1.1" viewBox="0 0 1024 1024" width="1024" height="1024" xmlns="http://www.w3.org/2000/svg">
<path transform="translate(511,57)" d="m0 0 7 1 24 14 22 12 24 14 24 13 21 12 46 26 28 16 25 14 22 13 12 6 17 10 1 4-10 7-28 17-21 13-5 1-12-6-19-11-23-13-25-14-24-14-24-13-21-12-25-14-23-13-10-5-6 2-25 14-24 14-25 14-24 14-5 3v214l-1 2-6-1-24-13-31-16-9-6-3-4-1-4v-127l-16 8-17 10-84 48-3 3v344l5 4 24 13 24 14 4 2 6-1 32-19 23-14h2l1-244 3-1 7 4 23 13 30 16 23 13 32 17 23 13 30 16 23 13 32 17 23 13 32 17 8 6 1 2v77l-1 1h-5l-21-12-26-14-23-13-26-14-45-25-24-13-23-13-18-10-4-1v156l-3 6-10 7-16 9-27 16-54 32-20 12-6 1-22-12-24-14-29-16-21-12-25-14-9-6-2-4v-417l3-5 13-8 28-16 24-14 78-45 56-32 26-15 25-14 24-14 25-14 24-14 25-14 21-12z"/>
<path transform="translate(808,227)" d="m0 0 7 1 26 15 28 16 10 6 3 4v424l-2 4-15 9-29 17-27 16-73 43-29 17-27 16-29 17-15 9-22 13-29 17-50 30-15 7h-8l-14-7-24-14-52-30-84-48-26-15-3-2 1-4 53-31 10-6 4-1 12 6 24 14 25 14 24 14 25 14 24 14 5 1 10-4 32-19 29-17 26-15 22-13 2-3 1-313 3-5 9-6 32-17 23-13h4l1 2 1 309 6-2 26-15 24-14 28-16 13-8 1-1 1-235 1-114-10 4-21 12-50 28-23 13-25 14-21 12-27 15-24 14-24 13-24 14-1 3v44h-6l-29-16-25-14-4-5v-56l2-4 150-84 108-60 29-16z"/>
</svg>
